# xmcd CD database file
#
# Track frame offsets:
#	150
#	21900
#	42825
#
# Disc length: 858 seconds
#
# Revision: 0
# Processed by: cddbd v1.5PL3 Copyright (c) Steve Scherf et al.
# Submitted via: CDex 1.51
#
DISCID=1c035803
DTITLE=L'luvia - So Far Away
DYEAR=1999
DGENRE=JPop
TTITLE0=So Far Away
TTITLE1=グローリーデイズ
TTITLE2=So Far Away (ORIGINAL KARAOKE)
EXTD=YEAR: 1999
EXTT0=
EXTT1=
EXTT2=
PLAYORDER=
